PathFileType	4	(X/Y/Z)	RBDS018\RBDS018runT25.trc
DataRate	CameraRate	NumFrames	NumMarkers	Units	OrigDataRate	OrigDataStartFrame	OrigNumFrames
150.000000	150.000000	4	33	mm	150.000000	562	4500
Frame#	Time	L.ASIS			L.Heel.Bottom			L.Heel.Lateral			L.Heel.Top			L.Iliac.Crest			L.MT1			L.MT5			L.PSIS			L.Shank.Bottom.Lateral			L.Shank.Bottom.Medial			L.Shank.Top.Lateral			L.Shank.Top.Medial			L.Thigh.Bottom.Lateral			L.Thigh.Bottom.Medial			L.Thigh.Top.Lateral			L.Thigh.Top.Medial			R.ASIS			R.ASY			R.Heel.Bottom			R.Heel.Lateral			R.Heel.Top			R.Iliac.Crest			R.MT1			R.MT5			R.PSIS			R.Shank.Bottom.Lateral			R.Shank.Bottom.Medial			R.Shank.Top.Lateral			R.Shank.Top.Medial			R.Thigh.Bottom.Lateral			R.Thigh.Bottom.Medial			R.Thigh.Top.Lateral			R.Thigh.Top.Medial			
		X1	Y1	Z1	X2	Y2	Z2	X3	Y3	Z3	X4	Y4	Z4	X5	Y5	Z5	X6	Y6	Z6	X7	Y7	Z7	X8	Y8	Z8	X9	Y9	Z9	X10	Y10	Z10	X11	Y11	Z11	X12	Y12	Z12	X13	Y13	Z13	X14	Y14	Z14	X15	Y15	Z15	X16	Y16	Z16	X17	Y17	Z17	X18	Y18	Z18	X19	Y19	Z19	X20	Y20	Z20	X21	Y21	Z21	X22	Y22	Z22	X23	Y23	Z23	X24	Y24	Z24	X25	Y25	Z25	X26	Y26	Z26	X27	Y27	Z27	X28	Y28	Z28	X29	Y29	Z29	X30	Y30	Z30	X31	Y31	Z31	X32	Y32	Z32	X33	Y33	Z33	

563	3.746666666666667	2128.81644007995	991.4061140199257	929.544618221167	1955.361734663578	33.61727929598941	1032.498507472452	1987.566985341464	45.14976639481787	986.7755454158583	1967.118433443526	83.41181355274205	1031.539722797051	2049.634067173473	1048.644111141799	891.9913453879785	2178.618478400633	41.93201904202651	1085.706406630302	2155.059144177634	43.82739518445903	969.6974933707808	1957.98513771671	1001.380005091576	1014.34955694162	2065.665009038998	174.8614374460834	954.2571797381594	2030.744641894405	195.3622535230297	986.0891854699091	2086.819139112026	247.958090865408	925.4189605058398	2054.864966808724	272.6374152161101	960.3514061694307	2166.571996457913	596.8777711061913	875.164748538598	2111.018326021752	580.6355061411932	919.3037778331837	2124.254023962629	696.0167364469453	856.2238961425434	2069.691639297467	680.1361171389768	896.7936504129885	2160.543206921899	974.806102322016	1154.778598660417	1697.521200021935	239.397583511479	1092.822040614314	1634.167119676504	429.587113796385	1077.662471664377	1649.900407326022	409.8295685109948	1116.982846482547	1683.597758109655	420.1405673551268	1079.180807066466	2101.393759742008	1047.366358944209	1200.028211982619	1655.876366841465	206.359496953705	1045.011863379284	1651.3533338794	235.9999795056958	1152.558920113264	1975.37209609211	998.2152366940459	1122.538137436903	1796.728773978442	388.2333684331014	1150.572764347465	1788.675253664564	430.9726698038014	1116.187358782121	1871.97852011675	416.3560652109888	1164.80756136159	1863.412899254618	456.4671600161596	1130.29625519661	2115.272110360773	552.6051385442132	1188.930685887294	2051.920406609004	553.1171747625571	1153.747462232676	2101.511343790393	659.7945180914206	1213.463293878994	2039.963576328542	658.8174886242314	1183.044910407346	
564	3.753333333333333	2126.573355390223	987.5589115841498	928.8723433263367	1938.93467715255	34.3575470129485	1032.36485710532	1971.204250324649	45.49624333165794	986.6284776625097	1950.902627762373	84.04934236988446	1031.152389224445	2046.603991251632	1044.033687858612	892.2897109527788	2162.181650121578	42.01605435732853	1085.306850539671	2138.477973363319	43.53241718934667	969.3566688571665	1955.709413407116	998.5721344719911	1014.837960613387	2051.982147510676	174.6647872346554	953.3997948784556	2017.684781495656	196.1017538613701	985.2142084844266	2075.137171499686	247.0290907571959	924.5749897466536	2043.870244047949	272.6512464161478	959.4035868970882	2161.756831831138	593.5102341009501	874.372872723245	2106.254525332799	577.472853940593	918.6642417406257	2119.905970401766	692.9600339618264	855.8132108112625	2065.428658405283	677.2648310329488	896.5276796470067	2158.395053549792	970.7817999454198	1154.959927045491	1710.043640743071	239.5591263882538	1095.369000857001	1645.507854098117	429.2841296636163	1079.933741943777	1661.717997607244	409.8907773650166	1119.10906316522	1695.089554197501	420.0724778668957	1081.10206103952	2099.40207255842	1043.4908965067	1200.525800910395	1668.275101684002	205.9669633146224	1048.203714393902	1664.522685870327	236.2564956137702	1155.590122528202	1973.060786928305	994.9082399579029	1122.804325602855	1809.151952483715	388.1101249360244	1152.447741705151	1801.413475424484	430.7436157022935	1117.840354847968	1884.636243727258	415.7221617327283	1166.432849394158	1876.377447218683	455.6893120477407	1131.666163264572	2124.582707290592	549.9744984535664	1191.189992055337	2060.659992631813	548.2304779973152	1157.094855862481	2107.972076337144	656.9131920299927	1215.099956865768	2046.104947282262	653.8413972119819	1185.509136997799	
565	3.76	2124.37053309514	984.3296814129993	928.4079511433936	1922.459296093361	35.13585272063219	1032.16304924056	1954.781533560985	45.80195781116721	986.3940915882436	1934.666456578663	84.71889696810712	1030.63505108377	2043.508987868498	1040.521326607	892.650544610485	2145.645798720834	41.9839338456111	1084.900481978823	2121.829362989447	43.15775093880809	968.9724065232099	1953.54185856218	996.3752791319924	1015.258095491403	2037.930954832441	174.5049680995051	952.3872383487543	2004.315065911439	196.8092101400531	984.2362672249395	2062.943320190759	246.1337583933555	923.5757059457911	2032.386699979438	272.6291031826696	958.3340336281083	2156.406640334379	590.3794245858015	873.4065094411779	2100.879861148523	574.6069381720357	917.7882647963274	2115.202304361557	690.2365785675639	855.3216518337586	2060.791351166092	674.7801816411271	896.153980003639	2156.056546224324	967.632824119873	1155.32539361695	1723.380151563099	239.0263990755736	1097.855590344778	1656.805240138647	427.9192859301663	1082.085920322518	1673.588687542456	409.0066026247143	1121.082291370849	1706.595778899855	419.1548038419855	1082.875493038759	2097.176822091711	1040.672678408488	1200.879350548292	1681.698616810347	204.6652793713519	1051.344557546539	1678.567280874328	235.6381301514304	1158.557828454029	1970.740760128342	992.462284092242	1123.058128816377	1821.797885630075	387.6070943598639	1154.271272550707	1814.177005934629	430.1603308736797	1119.512862707931	1897.392235260654	415.0215349883073	1168.04683320754	1889.246699492848	454.8704710380755	1133.104781699229	2134.116456409398	548.2530222934502	1193.552320845271	2069.716771332633	544.2013814251366	1160.539142578212	2114.619610840064	654.8302155960984	1216.860046881784	2052.493632997174	649.6180014188718	1188.145440274205	
566	3.766666666666667	2122.265909177	981.7222296311128	928.2221174478155	1905.914759677571	35.91664042023013	1031.940965728835	1938.276059618076	46.09057335691999	986.1255473927783	1918.375607350339	85.39476818180832	1030.084245637924	2040.490410703334	1038.103860729952	893.0568912128526	2128.995881220753	41.84479993504913	1084.546562371055	2105.099477883501	42.75849962004738	968.5969573844828	1951.515881279131	994.7238627174028	1015.601926999329	2023.527647777921	174.3625764499727	951.3425793952397	1990.605459023421	197.4690759553208	983.2520155283205	2050.247984511069	245.2662858500317	922.5179639443433	2020.392942822759	272.5664531893169	957.2249389157499	2150.429431629267	587.4604926323035	872.3259356789152	2094.795321874719	572.0482475926106	916.7380096009206	2110.099477833768	687.8238304247121	854.7837832435191	2055.727043193436	672.6995851496059	895.7182047540755	2153.584329440198	965.3591181759216	1155.874351941109	1737.476815637929	237.7949418797057	1100.253585503485	1668.003156452852	425.4653255662274	1084.117236088923	1685.438206559431	407.1378269188846	1122.913989829269	1718.043448397478	417.3710975700781	1084.514159219158	2094.728035642566	1038.811988398528	1201.138463685729	1696.110769128156	202.4691253866266	1054.382153543339	1693.420292088426	234.1233941014249	1161.416669203444	1968.444650119477	990.773756206949	1123.291275333025	1834.595216023232	386.7021315781462	1156.044010678996	1826.882755067215	429.2165849358315	1121.230996399171	1910.1737556376	414.239699148145	1169.661392068635	1901.938154058132	454.0140058132056	1134.647949871158	2143.772700576565	547.4936785292407	1195.959404801021	2079.027230248802	541.1085179615239	1163.959082410747	2121.356189190575	653.588108218554	1218.710894288653	2059.054116306766	646.211546076088	1190.877732388014	
